<svg xmlns="http://www.w3.org/2000/svg" xmlns:xlink="http://www.w3.org/1999/xlink" width="343.142" height="271" viewBox="0 0 343.142 271">
  <defs>
    <linearGradient id="linear-gradient" x1="0.5" y1="1" x2="0.5" gradientUnits="objectBoundingBox">
      <stop offset="0" stop-color="gray" stop-opacity="0.251"/>
      <stop offset="0.54" stop-color="gray" stop-opacity="0.122"/>
      <stop offset="1" stop-color="gray" stop-opacity="0.102"/>
    </linearGradient>
  </defs>
  <g id="undraw_coding_6mjf" transform="translate(-0.015)">
    <rect id="Rectangle_1" data-name="Rectangle 1" width="19.799" height="9.297" transform="translate(290.877 97.45)" fill="#38d39f" opacity="0.2"/>
    <rect id="Rectangle_2" data-name="Rectangle 2" width="19.799" height="9.297" transform="translate(292.4 108.813)" fill="#38d39f" opacity="0.2"/>
    <rect id="Rectangle_3" data-name="Rectangle 3" width="19.799" height="9.297" transform="translate(276.028 29.958)" fill="#38d39f" opacity="0.2"/>
    <rect id="Rectangle_4" data-name="Rectangle 4" width="19.799" height="9.297" transform="translate(290.116 40.633)" fill="#38d39f" opacity="0.2"/>
    <rect id="Rectangle_5" data-name="Rectangle 5" width="19.799" height="9.297" transform="translate(252.041 30.647)" fill="#38d39f" opacity="0.2"/>
    <rect id="Rectangle_6" data-name="Rectangle 6" width="19.799" height="9.297" transform="translate(315.625 51.307)" fill="#38d39f" opacity="0.2"/>
    <rect id="Rectangle_7" data-name="Rectangle 7" width="19.799" height="9.297" transform="translate(291.639 51.996)" fill="#38d39f" opacity="0.2"/>
    <rect id="Rectangle_8" data-name="Rectangle 8" width="19.799" height="9.297" transform="translate(266.129 41.321)" fill="#38d39f" opacity="0.2"/>
    <rect id="Rectangle_9" data-name="Rectangle 9" width="19.799" height="9.297" transform="translate(314.483 122.931)" fill="#38d39f" opacity="0.2"/>
    <rect id="Rectangle_10" data-name="Rectangle 10" width="19.799" height="9.297" transform="translate(290.496 123.62)" fill="#38d39f" opacity="0.2"/>
    <path id="Path_1" data-name="Path 1" d="M232.453,332.5s27.9,25.237,12.153,62.671,27,99.736,27,99.736-.457-.062-1.306-.2c-57.309-9.149-85.785-68.428-53.9-112.453C228.231,365.871,237.955,346.666,232.453,332.5Z" transform="translate(-182.541 -237.461)" fill="#38d39f"/>
    <path id="Path_2" data-name="Path 2" d="M269.663,332.5s15.751,30.936,0,56.17-2.7,96.072,39.156,106.237" transform="translate(-219.75 -237.461)" fill="none" stroke="#535461" stroke-miterlimit="10" stroke-width="2"/>
    <path id="Path_3" data-name="Path 3" d="M149.63,628.319s31.842-4.587,34.743,21.222S245.6,678.928,245.6,678.928s-.381.234-1.093.658c-48.16,28.581-94.2,18.212-87.255-19.752C159.834,645.719,159.621,631.542,149.63,628.319Z" transform="translate(-149.42 -431.209)" fill="#38d39f"/>
    <path id="Path_4" data-name="Path 4" d="M149.63,628.319s31.842-4.587,34.743,21.222S245.6,678.928,245.6,678.928s-.381.234-1.093.658c-48.16,28.581-94.2,18.212-87.255-19.752C159.834,645.719,159.621,631.542,149.63,628.319Z" transform="translate(-149.42 -431.209)" fill="#f5f5f5" opacity="0.2"/>
    <path id="Path_5" data-name="Path 5" d="M149.63,628.92s24.714,4.907,22.685,25.23,36.7,44.7,73.289,25.378" transform="translate(-149.42 -431.81)" fill="none" stroke="#535461" stroke-miterlimit="10" stroke-width="2"/>
    <rect id="Rectangle_11" data-name="Rectangle 11" width="19.799" height="9.297" transform="translate(0.37 97.794)" fill="#38d39f" opacity="0.2"/>
    <rect id="Rectangle_12" data-name="Rectangle 12" width="19.799" height="9.297" transform="translate(14.457 108.469)" fill="#38d39f" opacity="0.2"/>
    <rect id="Rectangle_13" data-name="Rectangle 13" width="19.799" height="9.297" transform="translate(121.446)" fill="#38d39f" opacity="0.2"/>
    <rect id="Rectangle_14" data-name="Rectangle 14" width="19.799" height="9.297" transform="translate(277.551 171.484)" fill="#38d39f" opacity="0.2"/>
    <rect id="Rectangle_15" data-name="Rectangle 15" width="19.799" height="9.297" transform="translate(15.98 119.832)" fill="#38d39f" opacity="0.2"/>
    <rect id="Rectangle_16" data-name="Rectangle 16" width="19.799" height="9.297" transform="translate(135.534 10.675)" fill="#38d39f" opacity="0.2"/>
    <rect id="Rectangle_17" data-name="Rectangle 17" width="19.799" height="9.297" transform="translate(63.193 73.69)" fill="#38d39f" opacity="0.2"/>
    <rect id="Rectangle_18" data-name="Rectangle 18" width="19.799" height="9.297" transform="translate(77.28 84.365)" fill="#38d39f" opacity="0.2"/>
    <rect id="Rectangle_19" data-name="Rectangle 19" width="19.799" height="9.297" transform="translate(114.974 78.511)" fill="#38d39f" opacity="0.2"/>
    <rect id="Rectangle_20" data-name="Rectangle 20" width="19.799" height="9.297" transform="translate(78.803 95.728)" fill="#38d39f" opacity="0.2"/>
    <rect id="Rectangle_21" data-name="Rectangle 21" width="19.799" height="9.297" transform="translate(304.203 171.484)" fill="#38d39f" opacity="0.2"/>
    <path id="Path_6" data-name="Path 6" d="M548.3,221.993a128.938,128.938,0,0,1-2.353-19.528h0c-.519-11.054-8.668-20.619-20.355-23.891-2.079-.578-4.367-1.119-6.9-1.6-22.159-4.256-28.891-.541-29.656-.052a24.6,24.6,0,0,1-1.687-3.309c-.038-.117-.072-.234-.111-.344a24.579,24.579,0,0,0,7.581-15.458c3.7-3.388,5.856-7.479,5.856-11.883a15.448,15.448,0,0,0-4.4-10.416v-5.985c0-14.372-12.882-26.022-28.773-26.022h-2.334c-15.891,0-28.773,11.651-28.773,26.022v6.45a15.232,15.232,0,0,0-3.979,9.945c0,4.311,2.071,8.319,5.627,11.666a24.608,24.608,0,0,0,7.9,15.957c.156.978.316,2.028.472,3.137l-39.635,7.572s-15.283.568-25.129,18.939c-8.327,15.561-24.9,55.539-29.8,67.44h0c-.887,2.156-1.39,3.392-1.39,3.392s.164-.148.472-.4l-.472,1.16s.24-.22.7-.582c-.693,4.979-.792,13.529,6.419,14.593,6.046.892,21.626,1.26,33.395,1.408h.815c7.8.093,13.737.093,13.737.093V290.2H532.1v-1.174a7.243,7.243,0,0,0-.7-3.1l.175-.193a6,6,0,0,1,1.314,2.755,2.529,2.529,0,0,1-.061.289l.076-.176a2.678,2.678,0,0,1-.076.933s16.239-37.84,16.064-60.436A34.694,34.694,0,0,0,548.3,221.993Zm-101.221-40.2a23.845,23.845,0,0,1-.4-3.264V178.5C446.815,179.559,446.952,180.661,447.077,181.79Zm-49.2,81.279v9.018l-6.244,1.209Z" transform="translate(-273.785 -87.316)" fill="url(#linear-gradient)"/>
    <path id="Path_7" data-name="Path 7" d="M456.913,57.57h0c15.891,0,28.773,11.651,28.773,26.022v11.1H428.14v-11.1c0-14.372,12.882-26.022,28.773-26.022Z" transform="translate(-264.999 -37.746)" fill="#e14b5a"/>
    <ellipse id="Ellipse_1" data-name="Ellipse 1" cx="32.797" cy="20.382" rx="32.797" ry="20.382" transform="translate(159.319 40.206)" fill="#e14b5a"/>
    <path id="Path_8" data-name="Path 8" d="M596.672,277.66s6.853,32.393,0,41.129,20.941,12.193,20.941,12.193l28.769-9.463,4.025-23.3s-17.514-8.919-13.886-26.935Z" transform="translate(-425.581 -197.328)" fill="#f7c4a7"/>
    <path id="Path_9" data-name="Path 9" d="M776.3,588.525s1.812,7.1-8.049,8.371a61.582,61.582,0,0,1-17.545-.189L748.53,578.88h22.94Z" transform="translate(-520.293 -399.001)" fill="#f7c4a7"/>
    <path id="Path_10" data-name="Path 10" d="M362.561,561.076s-4.356,16.009,5.506,17.455,46.07,1.457,46.07,1.457V561.049l-16.395,3.168-15.39-13.347Z" transform="translate(-280.686 -380.636)" fill="#f7c4a7"/>
    <path id="Path_11" data-name="Path 11" d="M453.285,317.18l-38.535,7.369s-14.689.548-24.147,18.2-29.984,68.063-29.984,68.063,17.514-16.016,38.032,1.092l13.684-22.382-3.019,35.488H515.346V408.263S537.479,419,535.872,425c0,0,18.942-44.138,14.849-64.2a123.9,123.9,0,0,1-2.262-18.767h0c-.5-10.624-8.329-19.818-19.563-22.958-2-.554-4.188-1.074-6.625-1.539-22.738-4.366-28.556,0-28.556,0s-4.405,12.961-4.325,18.836c.1,7.551-11.871,12.558-11.871,12.558s-17.708-3.822-18.512-6.914S451.869,320.82,453.285,317.18Z" transform="translate(-280.077 -226.383)" opacity="0.1"/>
    <path id="Path_12" data-name="Path 12" d="M453.279,315.07l-38.535,7.369s-14.689.547-24.147,18.2-29.987,68.07-29.987,68.07,17.514-16.016,38.032,1.092l13.684-22.382-3.019,35.478H515.34V406.153s22.133,10.737,20.526,16.742c0,0,18.942-44.138,14.849-64.2a123.894,123.894,0,0,1-2.262-18.767h0c-.5-10.624-8.329-19.818-19.563-22.957-2-.554-4.188-1.074-6.625-1.539-22.738-4.366-28.556,0-28.556,0s-4.405,12.961-4.325,18.836c.1,7.552-11.872,12.558-11.872,12.558s-17.708-3.822-18.512-6.914S451.863,318.71,453.279,315.07Z" transform="translate(-280.071 -225)" fill="#575988"/>
    <path id="Path_13" data-name="Path 13" d="M640.9,288.98a22.4,22.4,0,0,1-1.051-12.92L600,282.427s.575,2.724,1.226,6.8a29.395,29.395,0,0,0,39.666-.251Z" transform="translate(-428.315 -200.455)" opacity="0.1"/>
    <path id="Path_14" data-name="Path 14" d="M636.258,212.545c.187,13.669-11.917,24.884-27.031,25.049s-27.514-10.781-27.7-24.45c0-.2,0-.4,0-.6,0-9.461,5.955-18.09,15.346-22.244.814-.36,1.657-.686,2.522-.975a30.313,30.313,0,0,1,14.088-1.185h0c12.478,1.922,21.867,11.338,22.7,22.761Q636.258,211.718,636.258,212.545Z" transform="translate(-416.877 -142.584)" fill="#f7c4a7"/>
    <g id="Group_1" data-name="Group 1" transform="translate(164.653 46.118)" opacity="0.1">
      <path id="Path_15" data-name="Path 15" d="M599.36,193.891l.038-.021q-1.3.434-2.528.978c-9.39,4.156-15.343,12.786-15.34,22.241q0,.3,0,.6a6.624,6.624,0,0,0,2.456-.534c6.671-2.817,10.661-11.432,12.245-17.441C596.8,197.561,597.338,195.137,599.36,193.891Z" transform="translate(-581.53 -192.685)"/>
      <path id="Path_16" data-name="Path 16" d="M645.249,192.327a29.281,29.281,0,0,0-6.8-1.9,8.943,8.943,0,0,1,4.885,2.775,11.065,11.065,0,0,1,1.5,2.41,30.083,30.083,0,0,0-23.016.43c1.717,3.406,7.044,5.262,10.6,6.5q5.841,2.039,11.8,3.729l-3.518-2.583,7.946,1.143a11.327,11.327,0,0,0-.556-4.235c1.523,1.109,3.541,1.481,5.193,2.41,3.1,1.766,4.386,5.165,6.073,8.109a5.488,5.488,0,0,0,1.774,2.066c-.662-9.062-6.755-17.069-15.877-20.864Z" transform="translate(-606.474 -190.43)"/>
    </g>
    <path id="Path_17" data-name="Path 17" d="M599.36,192.261l.038-.021q-1.3.434-2.528.978c-9.39,4.156-15.343,12.786-15.34,22.241q0,.3,0,.6a6.624,6.624,0,0,0,2.456-.534c6.671-2.817,10.661-11.432,12.245-17.441C596.8,195.945,597.338,193.511,599.36,192.261Z" transform="translate(-416.877 -145.499)" fill="#632652"/>
    <path id="Path_18" data-name="Path 18" d="M645.249,190.707a29.28,29.28,0,0,0-6.8-1.9,8.943,8.943,0,0,1,4.885,2.775,11.065,11.065,0,0,1,1.5,2.41,30.083,30.083,0,0,0-23.016.43c1.717,3.406,7.044,5.262,10.6,6.5q5.841,2.039,11.8,3.729l-3.518-2.583,7.946,1.143a11.327,11.327,0,0,0-.556-4.235c1.523,1.109,3.541,1.481,5.193,2.41,3.1,1.766,4.386,5.165,6.073,8.109a5.488,5.488,0,0,0,1.774,2.066c-.662-9.062-6.755-17.069-15.877-20.864Z" transform="translate(-441.821 -143.25)" fill="#632652"/>
    <path id="Path_19" data-name="Path 19" d="M573.33,202.974s28.175-31.68,60.77,0l-2.818-7.1s-15.294-20.2-26.157-15.84-21.531,7.462-21.531,7.462Z" transform="translate(-411.799 -137.093)" opacity="0.1"/>
    <path id="Path_20" data-name="Path 20" d="M573.33,201.344s28.175-31.68,60.77,0l-2.818-7.1s-15.294-20.2-26.157-15.84-21.531,7.462-21.531,7.462Z" transform="translate(-411.799 -136.025)" fill="#e14b5a"/>
    <path id="Path_21" data-name="Path 21" d="M504.37,444.38s-6.035,14.559,2.414,27.661S499.34,490.6,499.34,490.6" transform="translate(-365.98 -310.815)" opacity="0.1"/>
    <path id="Path_22" data-name="Path 22" d="M764.81,406.33s10.463,12.011,3.621,22.747-6.438,36.58-6.438,36.58" transform="translate(-528.627 -285.868)" opacity="0.1"/>
    <path id="Path_23" data-name="Path 23" d="M323.116,553.3H439.421c5.335,0,9.659,3.911,9.659,8.736H313.46C313.46,557.213,317.782,553.3,323.116,553.3Z" transform="translate(-193.982 -362.773)" fill="#535461"/>
    <path id="Path_24" data-name="Path 24" d="M345.749,378.89h92.642c8.2,0,14.849,6.013,14.849,13.429v48.628H330.9V392.319C330.9,384.9,337.548,378.89,345.749,378.89Z" transform="translate(-204.782 -248.421)" fill="#535461"/>
    <ellipse id="Ellipse_2" data-name="Ellipse 2" cx="7.246" cy="6.553" rx="7.246" ry="6.553" transform="translate(179.94 157.676)" fill="#fff"/>
    <path id="Path_25" data-name="Path 25" d="M577.56,183.26s27.688-25.027,57.549-.458" transform="translate(-414.419 -132.228)" fill="none" stroke="#000" stroke-miterlimit="10" stroke-width="1" opacity="0.1"/>
    <rect id="Rectangle_22" data-name="Rectangle 22" width="2.779" height="14.252" transform="translate(224.906 49.438)" fill="#6a5c99"/>
    <path id="Path_26" data-name="Path 26" d="M580.62,170.35h0c5.291,0,9.58,3.879,9.58,8.664v.558c0,4.785-4.289,8.664-9.58,8.664h0Z" transform="translate(-359.423 -111.691)" fill="#ffd037"/>
    <rect id="Rectangle_23" data-name="Rectangle 23" width="4.325" height="19.562" rx="2.163" transform="translate(219.343 57.823)" fill="#6a5c99"/>
    <rect id="Rectangle_24" data-name="Rectangle 24" width="2.779" height="14.252" transform="translate(158.641 63.969) rotate(180)" fill="#6a5c99"/>
    <path id="Path_27" data-name="Path 27" d="M0,0H0C5.291,0,9.579,3.879,9.579,8.664v.558c0,4.785-4.289,8.664-9.579,8.664H0Z" transform="translate(162.35 76.824) rotate(180)" fill="#ffd037"/>
    <rect id="Rectangle_25" data-name="Rectangle 25" width="4.325" height="19.562" rx="2.163" transform="translate(164.204 77.66) rotate(180)" fill="#6a5c99"/>
    <path id="Path_28" data-name="Path 28" d="M625.9,124.706c-3.766-7.08-11.967-15.64-29.645-16.325v-.021h-.213l-6.263.269v.028c-17.56.73-25.723,9.259-29.477,16.315a33.829,33.829,0,0,0-3.891,15.289l2.163-.048,2.163-.045a30.686,30.686,0,0,1,3.514-13.609c4.767-8.857,13.539-13.564,26.069-14h0l5.54-.279h0c12.538.434,21.314,5.148,26.077,14a30.688,30.688,0,0,1,3.522,13.615l2.163.045,2.163.048A33.827,33.827,0,0,0,625.9,124.706Z" transform="translate(-401.321 -90.502)" fill="#ffd037"/>
    <rect id="Rectangle_26" data-name="Rectangle 26" width="294.966" height="71.624" transform="translate(28.412 199.376)" fill="#d6d6e3"/>
    <rect id="Rectangle_27" data-name="Rectangle 27" width="294.966" height="9.297" transform="translate(28.412 204.197)" opacity="0.1"/>
    <rect id="Rectangle_28" data-name="Rectangle 28" width="334.532" height="9.297" transform="translate(8.624 198.343)" fill="#d6d6e3"/>
  </g>
</svg>
