<svg xmlns="http://www.w3.org/2000/svg" width="325.848" height="201.064" viewBox="0 0 325.848 201.064">
  <g id="undraw_web_developer" transform="translate(0 -112.169)">
    <path id="Path_1" data-name="Path 1" d="M901.713,743.732c-2.688,11.032-12.108,17.926-12.108,17.926s-5.061-10.992-2.373-22.023,12.108-17.925,12.108-17.925S904.4,732.7,901.713,743.732Z" transform="translate(-640.111 -452.401)" fill="#3f3d56"/>
    <path id="Path_2" data-name="Path 2" d="M902.141,756.8c-7.529,8.016-8.372,20.253-8.372,20.253s11.365-.76,18.895-8.776,8.372-20.253,8.372-20.253S909.67,748.784,902.141,756.8Z" transform="translate(-644.616 -467.802)" fill="#fe8853"/>
    <path id="Path_3" data-name="Path 3" d="M186.468,649.353h14.18l34.943-14.734s24.815-10.914,22.789,9.823-5.571,48.569-5.571,48.569-11.141-5.457-17.219-3.82-2.026-33.289-2.026-33.289-49.63,25.649-54.188,22.374-5.571-26.194-5.571-26.194Z" transform="translate(-130.762 -399.751)" fill="#2f2e41"/>
    <path id="Path_4" data-name="Path 4" d="M186.468,649.353h14.18l34.943-14.734s24.815-10.914,22.789,9.823-5.571,48.569-5.571,48.569-11.141-5.457-17.219-3.82-2.026-33.289-2.026-33.289-49.63,25.649-54.188,22.374-5.571-26.194-5.571-26.194Z" transform="translate(-130.762 -399.751)" opacity="0.1"/>
    <path id="Path_5" data-name="Path 5" d="M244.42,558.82l17.161,26.569,40.008,36.017s36.969,9.277,31.9,15.826-35.956-6.549-35.956-6.549-46.085-36.017-47.6-38.746S231.7,563.56,231.7,563.56Z" transform="translate(-166.373 -357.07)" fill="#a0616a"/>
    <path id="Path_6" data-name="Path 6" d="M244.42,558.82l17.161,26.569,40.008,36.017s36.969,9.277,31.9,15.826-35.956-6.549-35.956-6.549-46.085-36.017-47.6-38.746S231.7,563.56,231.7,563.56Z" transform="translate(-166.373 -357.07)" opacity="0.1"/>
    <path id="Path_7" data-name="Path 7" d="M211.573,507.092l11.141,23.466s-2.532,11.46-6.584,12.552-21.27-14.189-21.27-14.189Z" transform="translate(-143.712 -326.797)" fill="#d0cde1"/>
    <path id="Path_8" data-name="Path 8" d="M211.573,507.092l11.141,23.466s-2.532,11.46-6.584,12.552-21.27-14.189-21.27-14.189Z" transform="translate(-143.712 -326.797)" opacity="0.1"/>
    <path id="Path_9" data-name="Path 9" d="M566.848,643.915l3.291,14.629a.983.983,0,0,1-.016.494l-14.929,50.273a.85.85,0,0,1-.891.631.882.882,0,0,1-.759-.806l-2.065-19.584a.981.981,0,0,1,.036-.386l13.7-45.318a.853.853,0,0,1,.839-.63.866.866,0,0,1,.791.7Z" transform="translate(-363.067 -406.464)" fill="#2f2e41"/>
    <path id="Path_10" data-name="Path 10" d="M505.263,575.493l3.038,12.552-13.167,45.84L492.1,619.7Z" transform="translate(-302.692 -336.806)" fill="#f2f2f2"/>
    <path id="Path_11" data-name="Path 11" d="M415.779,776.928c.506,1.637,52.668-.546,53.175-1.091a12.153,12.153,0,0,0,1.114-2.183c.476-1.091.912-2.183.912-2.183l-2.026-17.67L417.3,751.825s-1.291,14.974-1.555,21.829A17.651,17.651,0,0,0,415.779,776.928Z" transform="translate(-279.551 -470.026)" fill="#2f2e41"/>
    <path id="Path_12" data-name="Path 12" d="M440.189,689.965l1.013,15.28H418.413v-15.28Z" transform="translate(-257.369 -403.8)" opacity="0.1"/>
    <path id="Path_13" data-name="Path 13" d="M377.634,701.765l.136-.029-.642,6.578H364.467v-6.549Z" transform="translate(-224.187 -410.689)" opacity="0.1"/>
    <path id="Path_14" data-name="Path 14" d="M415.78,807.73c.506,1.637,52.668-.546,53.175-1.091a12.142,12.142,0,0,0,1.114-2.183H415.744A17.633,17.633,0,0,0,415.78,807.73Z" transform="translate(-279.551 -500.828)" opacity="0.1"/>
    <ellipse id="Ellipse_1" data-name="Ellipse 1" cx="22.789" cy="24.557" rx="22.789" ry="24.557" transform="translate(52.668 123.541)" fill="#a0616a"/>
    <path id="Path_15" data-name="Path 15" d="M198.63,452.245s-7.6,14.189-9.116,21.829-22.789-15.28-22.789-15.28l-2.785-7.913s20-10.1,18.485-18.281S198.63,452.245,198.63,452.245Z" transform="translate(-124.692 -282.318)" fill="#a0616a"/>
    <path id="Path_16" data-name="Path 16" d="M225.748,584.722l20.763,29.469,49.63,39.837s35.956,8.186,27.853,14.189-31.4-5.457-31.4-5.457-50.136-28.923-60.771-40.929-30.386-32.2-30.386-32.2Z" transform="translate(-147.758 -372.229)" fill="#a0616a"/>
    <path id="Path_17" data-name="Path 17" d="M120.2,690.448l6.077,10.368,36.269-12.3a26.746,26.746,0,0,1,23.743,3.087c6.33,4.3,10.382,11.119,1.266,21.215-18.231,20.192-30.386,9.277-30.386,9.277s-61.278,31.106-71.406,15.826S75.126,715,75.126,715,114.121,688.81,120.2,690.448Z" transform="translate(-70.062 -432.115)" fill="#2f2e41"/>
    <path id="Path_18" data-name="Path 18" d="M304.613,775.156s16.206,11.46-3.039,16.917-33.424-2.183-33.424-2.183-16.712,0-16.712-9.277,5.571-10.369,5.571-10.369l17.219,2.728S294.991,766.971,304.613,775.156Z" transform="translate(-178.513 -480.806)" fill="#d0cde1"/>
    <path id="Path_19" data-name="Path 19" d="M228.532,372.585a16.215,16.215,0,0,0,4.776,1.843,4.236,4.236,0,0,0,4.4-2.034,6.819,6.819,0,0,0,.5-2.887c.061-3-.14-6.236-1.9-8.555-1.122-1.476-2.759-2.406-3.92-3.846a18.482,18.482,0,0,1-1.981-3.489c-2.258-4.569-5.6-8.961-10.247-10.278a20.665,20.665,0,0,0-5.981-.493l-11.7.178a18.968,18.968,0,0,0-5.628.653c-3.766,1.227-6.508,4.639-9.019,7.9a49.484,49.484,0,0,0-5.172,7.692,28.693,28.693,0,0,0-2.969,13.225,13.278,13.278,0,0,0,.421,3.5,20.176,20.176,0,0,0,1.276,3.021c2.194,4.644,3.5,10.444,1.026,14.924,4.292-1.889,8.539-4.367,11.371-8.323,1.267-1.77,2.26-3.842,3.948-5.141s4.439-1.412,5.522.495a5.669,5.669,0,0,1,.558,2.5,12.255,12.255,0,0,0,.64,4.215c.563,1.3,1.9,2.347,3.184,1.958,2.2-.669,1.994-4.316,3.692-5.973,1.29-1.258,3.28-1.017,4.937-1.589a7.619,7.619,0,0,0,4.2-4.462c.627-1.516.618-5.484,1.805-6.305C223.767,370.285,227.152,371.922,228.532,372.585Z" transform="translate(-134.38 -230.665)" fill="#2f2e41"/>
    <path id="Path_20" data-name="Path 20" d="M99.407,472.253a5.593,5.593,0,0,1,3.128.008c3.251.941,10.538,3.43,12.1,7.219,2.026,4.911,9.116,12.551,9.116,12.551s9.622,10.369,7.6,17.463-9.622,15.28-9.622,15.28,2.026,33.834-8.1,42.566-14.18,2.729-14.18,10.914-31.4,33.834-37.476,18.008c0,0,3.039-29.469,2.026-39.837C63,546.207,64.457,482.449,99.407,472.253Z" transform="translate(-61.968 -306.279)" fill="#e1decd"/>
    <path id="Path_21" data-name="Path 21" d="M163.658,503.754s30.892,24.557,25.321,34.926c0,0-18.738,9.823-22.789,9.277s-19.751-19.646-23.8-21.283S136.311,495.568,163.658,503.754Z" transform="translate(-109.976 -324.004)" fill="#d0cde1"/>
    <rect id="Rectangle_8" data-name="Rectangle 8" width="108.924" height="0.83" transform="translate(216.924 308.766)" fill="#3f3d56"/>
  </g>
</svg>
